<svg width="19" height="19" viewBox="0 0 19 19" fill="none" xmlns="http://www.w3.org/2000/svg">
<path opacity="0.4" d="M9.17653 18.3531C14.2445 18.3531 18.3531 14.2445 18.3531 9.17653C18.3531 4.10847 14.2445 0 9.17653 0C4.10847 0 0 4.10847 0 9.17653C0 14.2445 4.10847 18.3531 9.17653 18.3531Z" fill="#FF725E"/>
<path d="M9.47897 13.7647C9.31379 13.8197 9.02932 13.8197 8.86414 13.7647C7.4326 13.2783 4.22083 11.2319 4.22083 7.76322C4.22083 6.23077 5.45048 4.99194 6.97379 4.99194C7.87308 4.99194 8.67143 5.42323 9.17614 6.10229C9.67168 5.43241 10.4792 4.99194 11.3785 4.99194C12.9018 4.99194 14.1315 6.23077 14.1315 7.76322C14.1315 11.2319 10.9197 13.2783 9.47897 13.7647Z" fill="#FF725E"/>
</svg>
