<svg width="19" height="19" viewBox="0 0 19 19" fill="none" xmlns="http://www.w3.org/2000/svg">
<path opacity="0.4" d="M9.17653 18.3531C14.2445 18.3531 18.3531 14.2445 18.3531 9.17653C18.3531 4.10847 14.2445 0 9.17653 0C4.10847 0 0 4.10847 0 9.17653C0 14.2445 4.10847 18.3531 9.17653 18.3531Z" fill="#736DBF"/>
<path d="M10.475 5.18905L6.17026 6.6192C3.27658 7.58694 3.27658 9.16489 6.17026 10.1279L7.44786 10.5521L7.87212 11.8297C8.83509 14.7234 10.4178 14.7234 11.3808 11.8297L12.8157 7.52973C13.4545 5.59903 12.4057 4.54548 10.475 5.18905ZM10.6275 7.75379L8.81602 9.57487C8.74451 9.64638 8.65394 9.67975 8.56336 9.67975C8.47278 9.67975 8.38221 9.64638 8.3107 9.57487C8.17245 9.43662 8.17245 9.2078 8.3107 9.06955L10.1222 7.24847C10.2605 7.11022 10.4893 7.11022 10.6275 7.24847C10.7658 7.38672 10.7658 7.61554 10.6275 7.75379Z" fill="#736DBF"/>
</svg>
